<svg width="115" height="53" viewBox="0 0 115 53" fill="none" xmlns="http://www.w3.org/2000/svg">
<path d="M61.0582 46.0393V48.7892H64.2816V46.0393H65.1507V52.6145H64.2816V49.5298H61.0582V52.6145H60.1956V46.0393H61.0582Z" fill="white"/>
<path d="M69.8272 50.5473L69.1332 52.6145H68.2446L70.5082 46.0393H71.5459L73.8224 52.6145H72.9014L72.188 50.5473H69.8272ZM72.0129 49.884L71.3578 47.9906C71.2086 47.5591 71.1114 47.1727 71.0141 46.7928H70.9946C70.8973 47.1856 70.7871 47.5849 70.6573 47.9842L70.0023 49.884H72.0129Z" fill="white"/>
<path d="M77.7582 46.0393V52.6145H76.8956V46.0393H77.7582Z" fill="white"/>
<path d="M81.3602 46.1291C81.7948 46.039 82.4174 45.9939 83.0141 45.9939C83.9351 45.9939 84.5253 46.1613 84.9404 46.5284C85.2777 46.8182 85.4658 47.269 85.4658 47.7778C85.4658 48.6472 84.9145 49.2203 84.2075 49.4522V49.4844C84.7199 49.6582 85.0247 50.1284 85.1869 50.811C85.4074 51.7255 85.5631 52.363 85.6993 52.6142H84.8107C84.7004 52.4274 84.5513 51.8607 84.3632 51.0428C84.1621 50.1348 83.8119 49.7935 83.0271 49.7677H82.2164V52.6142H81.3538V46.1291H81.3602ZM82.2229 49.1237H83.1049C84.0259 49.1237 84.6096 48.6278 84.6096 47.8744C84.6096 47.0243 83.987 46.6572 83.079 46.6443C82.6639 46.6443 82.3655 46.683 82.2293 46.7216V49.1237H82.2229Z" fill="white"/>
<path d="M92.8525 51.5775C93.2352 51.8093 93.7994 52.0089 94.3961 52.0089C95.2782 52.0089 95.7906 51.5517 95.7906 50.8884C95.7906 50.2766 95.4338 49.9224 94.5323 49.5811C93.4427 49.2011 92.7747 48.6473 92.7747 47.7199C92.7747 46.696 93.6373 45.936 94.9279 45.936C95.609 45.936 96.1019 46.0906 96.4002 46.258L96.1602 46.9536C95.9397 46.8376 95.4987 46.6444 94.8955 46.6444C93.9875 46.6444 93.6373 47.1789 93.6373 47.6297C93.6373 48.2415 94.0394 48.5442 94.9604 48.8984C96.0889 49.3299 96.6597 49.8644 96.6597 50.8304C96.6597 51.8415 95.9008 52.7238 94.3248 52.7238C93.6827 52.7238 92.9822 52.537 92.6255 52.3052L92.8525 51.5775Z" fill="white"/>
<path d="M99.9474 46.1163C100.362 46.0455 100.907 45.9875 101.601 45.9875C102.451 45.9875 103.074 46.1807 103.469 46.5349C103.832 46.8441 104.053 47.3271 104.053 47.9067C104.053 48.4991 103.878 48.9693 103.541 49.3106C103.087 49.7871 102.347 50.0319 101.504 50.0319C101.245 50.0319 101.011 50.019 100.81 49.9739V52.6078H99.9474V46.1163V46.1163ZM100.81 49.2848C100.998 49.3363 101.238 49.3557 101.523 49.3557C102.561 49.3557 103.197 48.8598 103.197 47.9517C103.197 47.0823 102.574 46.6637 101.627 46.6637C101.251 46.6637 100.966 46.6959 100.816 46.7346V49.2848H100.81Z" fill="white"/>
<path d="M108.387 50.5473L107.693 52.6145H106.805L109.068 46.0393H110.106L112.382 52.6145H111.462L110.748 50.5473H108.387ZM110.573 49.884L109.918 47.9906C109.769 47.5591 109.671 47.1727 109.574 46.7928H109.555C109.457 47.1856 109.347 47.5849 109.217 47.9842L108.562 49.884H110.573Z" fill="white"/>
<path d="M83.7323 11.0967L74.931 34.3579L76.6109 38.5117L87.1892 11.0967H83.7323Z" fill="white"/>
<path d="M63.9035 11.0962H60.3234L72.4648 40.5978H75.805L75.818 40.5656L63.9035 11.0962Z" fill="white"/>
<path d="M56.531 14.7411C55.4284 13.4144 54.047 12.3518 52.419 11.5855C50.7911 10.8191 48.8972 10.4263 46.7893 10.4263C44.4934 10.4263 42.4633 10.8642 40.751 11.7271C39.0518 12.5901 37.6119 13.7557 36.4769 15.1919C35.3484 16.6215 34.4857 18.3024 33.928 20.1828C33.3702 22.0504 33.0848 24.0275 33.0913 26.1205V26.6164H36.2434H59.8128V26.1205C59.8128 25.9853 59.8193 25.805 59.8388 25.5731C59.8582 25.322 59.8712 25.0966 59.8712 24.8969C59.8712 22.9327 59.5858 21.0651 59.0216 19.3328C58.4638 17.6069 57.6271 16.0613 56.531 14.7411ZM36.3537 23.7957C36.4899 22.5528 36.7687 21.3227 37.1903 20.1313C37.6573 18.7918 38.3318 17.6069 39.2009 16.6022C40.0635 15.604 41.1337 14.7861 42.3919 14.1743C43.6437 13.5625 45.116 13.2534 46.7699 13.2534C48.3135 13.2534 49.695 13.5561 50.8884 14.1421C52.0882 14.7346 53.126 15.5461 53.9691 16.5378C54.8123 17.536 55.4609 18.7145 55.8954 20.0347C56.2846 21.2132 56.531 22.4755 56.6348 23.7892H36.3537V23.7957Z" fill="white"/>
<path d="M112.912 37.7705C112.522 37.7705 112.263 37.6997 112.094 37.5709C111.906 37.4292 111.777 37.2425 111.699 37.0042C111.601 36.7144 111.543 36.3924 111.524 36.0317C111.504 35.6325 111.498 35.2332 111.498 34.8339V18.2445C111.498 15.9197 110.629 14.0134 108.91 12.5644C107.217 11.1412 104.525 10.4199 100.906 10.4199C97.2872 10.4199 94.4464 11.2507 92.4553 12.8929C90.4447 14.5544 89.3421 17.0531 89.1864 20.3246L89.1605 20.8463H92.3126L92.3385 20.3761C92.4812 17.9869 93.3049 16.1837 94.7837 15.0245C96.2884 13.846 98.312 13.2471 100.79 13.2471C102.21 13.2471 103.423 13.3888 104.389 13.6721C105.343 13.949 106.121 14.329 106.705 14.7991C107.282 15.2628 107.71 15.7973 107.982 16.3898C108.222 16.9179 108.333 17.5425 108.333 18.3475V20.3439V29.2182C108.333 29.5467 108.229 30.2358 108.028 31.2597C107.833 32.245 107.373 33.2819 106.659 34.3509C105.946 35.4135 104.895 36.3731 103.527 37.1974C102.178 38.0152 100.303 38.4274 97.9488 38.4274C95.6917 38.4274 93.9016 37.9508 92.6434 37.0042C91.4046 36.0768 90.8014 34.6793 90.8014 32.7151C90.8014 31.4851 91.0414 30.4805 91.5148 29.7334C91.9948 28.9735 92.6304 28.3682 93.4087 27.9302C94.2064 27.4794 95.1145 27.151 96.1198 26.9578C97.164 26.7582 98.2147 26.6036 99.2459 26.4941L102.871 26.1592C104.208 26.0498 105.44 25.8759 106.529 25.6505C106.633 25.6312 106.731 25.5925 106.828 25.5668V22.5722C106.517 22.7332 106.153 22.8684 105.725 22.9843C104.876 23.2162 103.682 23.39 102.165 23.4931L98.8179 23.77C97.631 23.8795 96.3857 24.0727 95.108 24.3303C93.7914 24.6008 92.5785 25.058 91.4954 25.6891C90.3928 26.3331 89.4718 27.2283 88.7519 28.3424C88.019 29.4694 87.6493 30.9313 87.6493 32.6894C87.6493 35.5745 88.5703 37.7512 90.3928 39.1551C92.1764 40.5333 94.6994 41.2288 97.8969 41.2288C99.3367 41.2288 100.679 41.0549 101.886 40.7072C103.098 40.3658 104.201 39.8764 105.161 39.2582C106.121 38.6464 106.951 37.9315 107.626 37.133C107.885 36.8303 108.119 36.5147 108.333 36.1992C108.346 36.7079 108.397 37.1909 108.482 37.6289C108.585 38.1956 108.8 38.7043 109.104 39.1294C109.422 39.5737 109.883 39.9279 110.473 40.1855C111.05 40.4367 111.796 40.559 112.743 40.559C113.385 40.559 115 40.559 115 40.559V37.7255C115.006 37.7641 113.281 37.7705 112.912 37.7705Z" fill="white"/>
<path d="M35.3412 0.000244141H31.3394L0 40.5979H3.87203L35.3412 0.000244141Z" fill="white"/>
<path d="M3.79358 0V3.10407H27.0517L29.445 0H3.79358Z" fill="white"/>
<path d="M5.77148 40.5972H33.6929V37.4932H8.17772L5.77148 40.5972Z" fill="white"/>
<path d="M56.465 29.965L56.3742 30.3449C55.758 32.8887 54.623 34.8916 53.0145 36.3084C51.4126 37.7187 49.1944 38.4271 46.4185 38.4271C44.7257 38.4271 43.221 38.1116 41.9562 37.4804C40.685 36.8493 39.6149 35.9864 38.7782 34.9044C37.9286 33.8161 37.28 32.5216 36.8454 31.0727C36.7871 30.8795 36.7417 30.6798 36.6898 30.4802L36.5601 29.9521H36.5471C36.3849 29.2051 36.2747 28.4065 36.2163 27.5886H33.1161C33.142 28.4258 33.2263 29.2244 33.3625 29.9521H33.3561L33.4209 30.2483C33.4274 30.2934 33.4404 30.3321 33.4469 30.3771L33.4858 30.551C33.5896 31.0405 33.7063 31.517 33.849 31.9871C34.3938 33.8354 35.2369 35.4647 36.3525 36.8171C37.4681 38.1824 38.882 39.2708 40.5488 40.0564C42.2157 40.8421 44.1874 41.2414 46.4055 41.2414C50.0246 41.2414 52.9821 40.3076 55.2003 38.4658C57.4119 36.6239 58.8712 33.9578 59.5328 30.5381L59.6495 29.9457H56.465V29.965Z" fill="white"/>
</svg>
